<?xml version="1.0" encoding="UTF-8"?>
<svg id="Capa_2" xmlns="http://www.w3.org/2000/svg" viewBox="0 0 61.5 61.5">
  <defs>
    <style>
      .cls-1 {
        fill: #e6e6e6;
      }
    </style>
  </defs>
  <g id="Capa_1-2" data-name="Capa_1">
    <g>
      <path class="cls-1" d="M18.78,59.08c-3.66-1.55-6.95-3.77-9.77-6.59-2.82-2.82-5.04-6.11-6.59-9.77-1.6-3.79-2.42-7.82-2.42-11.97s.81-8.18,2.42-11.97c1.55-3.66,3.77-6.95,6.59-9.77,2.82-2.82,6.11-5.04,9.77-6.59,3.79-1.6,7.82-2.42,11.97-2.42s8.18.81,11.97,2.42c3.66,1.55,6.95,3.77,9.77,6.59,2.82,2.82,5.04,6.11,6.59,9.77,1.6,3.79,2.42,7.82,2.42,11.97s-.81,8.18-2.42,11.97c-1.55,3.66-3.77,6.95-6.59,9.77-2.82,2.82-6.11,5.04-9.77,6.59-3.79,1.6-7.82,2.42-11.97,2.42s-8.18-.81-11.97-2.42ZM20.49,6.46c-3.14,1.33-5.96,3.23-8.38,5.65-2.42,2.42-4.32,5.24-5.65,8.38-1.37,3.25-2.07,6.7-2.07,10.26s.7,7.01,2.07,10.26c1.33,3.14,3.23,5.96,5.65,8.38,2.42,2.42,5.24,4.32,8.38,5.65,3.25,1.37,6.7,2.07,10.26,2.07s7.01-.7,10.26-2.07c3.14-1.33,5.96-3.23,8.38-5.65,2.42-2.42,4.32-5.24,5.65-8.38,1.37-3.25,2.07-6.7,2.07-10.26s-.7-7.01-2.07-10.26c-1.33-3.14-3.23-5.96-5.65-8.38-2.42-2.42-5.24-4.32-8.38-5.65-3.25-1.37-6.7-2.07-10.26-2.07s-7.01.7-10.26,2.07Z"/>
      <ellipse class="cls-1" cx="19.59" cy="25.69" rx="4.22" ry="5.38"/>
      <ellipse class="cls-1" cx="41.91" cy="25.69" rx="4.22" ry="5.38"/>
      <path class="cls-1" d="M41.82,47.32c.34,0,.69-.08,1.01-.25,1.07-.56,1.49-1.88.93-2.96-1.22-2.34-3.05-4.32-5.3-5.71-2.31-1.43-4.98-2.19-7.71-2.19s-5.4.76-7.71,2.19c-2.25,1.39-4.08,3.37-5.3,5.71-.56,1.07-.14,2.4.93,2.96,1.07.56,2.4.14,2.96-.93,1.78-3.42,5.27-5.54,9.12-5.54s7.34,2.12,9.12,5.54c.39.75,1.16,1.18,1.95,1.18Z"/>
    </g>
  </g>
</svg>