<?xml version="1.0" encoding="UTF-8"?>
<svg id="Capa_2" xmlns="http://www.w3.org/2000/svg" viewBox="0 0 45.25 45.25">
  <defs>
    <style>
      .cls-1 {
        fill: #ed1c24;
      }
    </style>
  </defs>
  <g id="Capa_1-2" data-name="Capa_1">
    <g>
      <path class="cls-1" d="M22.63,2.78c2.68,0,5.28.52,7.72,1.56,2.36,1,4.48,2.43,6.31,4.25,1.82,1.82,3.25,3.95,4.25,6.31,1.03,2.44,1.56,5.04,1.56,7.72s-.52,5.28-1.56,7.72c-1,2.36-2.43,4.48-4.25,6.31-1.82,1.82-3.95,3.25-6.31,4.25-2.44,1.03-5.04,1.56-7.72,1.56s-5.28-.52-7.72-1.56c-2.36-1-4.48-2.43-6.31-4.25s-3.25-3.95-4.25-6.31c-1.03-2.44-1.56-5.04-1.56-7.72s.52-5.28,1.56-7.72c1-2.36,2.43-4.48,4.25-6.31,1.82-1.82,3.95-3.25,6.31-4.25,2.44-1.03,5.04-1.56,7.72-1.56M22.63,0C10.13,0,0,10.13,0,22.63s10.13,22.63,22.63,22.63,22.63-10.13,22.63-22.63S35.12,0,22.63,0h0Z"/>
      <g>
        <rect class="cls-1" x="9.69" y="21.23" width="25.35" height="2.78" transform="translate(-9.45 22.37) rotate(-44.87)"/>
        <rect class="cls-1" x="21.53" y="9.95" width="2.78" height="25.35" transform="translate(-9.29 22.76) rotate(-44.87)"/>
      </g>
    </g>
  </g>
</svg>