<?xml version="1.0" encoding="UTF-8"?>
<svg id="Capa_2" xmlns="http://www.w3.org/2000/svg" viewBox="0 0 29.92 29.82">
  <defs>
    <style>
      .cls-1 {
        fill: #fff;
      }
    </style>
  </defs>
  <g id="Capa_1-2" data-name="Capa_1">
    <g>
      <circle class="cls-1" cx="13.58" cy="13.95" r="11.23"/>
      <circle class="cls-1" cx="23.79" cy="24.16" r="5.11"/>
      <g>
        <path d="M24.04,18.09c-3.24,0-5.88,2.64-5.88,5.88.32,7.8,11.43,7.79,11.75,0,0-3.24-2.64-5.88-5.88-5.88ZM24.04,28.78c-2.65,0-4.81-2.16-4.81-4.81.26-6.38,9.35-6.38,9.62,0,0,2.65-2.16,4.81-4.81,4.81Z"/>
        <path d="M26.87,17.04c.29.06.57-.13.63-.42.19-.93.28-1.87.28-2.8C27.02-4.61.76-4.61,0,13.82c-.1,8.68,8.22,15.44,16.69,13.61.29-.06.48-.34.42-.63s-.34-.48-.63-.42c-7.82,1.69-15.5-4.55-15.41-12.56,0-7.07,5.75-12.82,12.82-12.82,8.01-.09,14.25,7.59,12.56,15.41-.06.29.13.57.42.63h0Z"/>
        <path d="M24.8,16.53c.29.06.57-.13.63-.42.15-.75.22-1.52.22-2.29,0-3.23-1.31-6.16-3.42-8.28C14.9-1.83,2.18,3.31,2.14,13.82c0,6.48,5.27,11.75,11.75,11.75.77,0,1.54-.08,2.29-.22.29-.06.48-.34.42-.63-.06-.29-.34-.48-.63-.42-.51.1-1.03.15-1.55.18v-.51c0-.3-.24-.53-.53-.53s-.53.24-.53.53v.51c-2.54-.13-4.85-1.14-6.62-2.75l.36-.36c.49-.5-.26-1.24-.76-.76,0,0-.36.36-.36.36-1.6-1.77-2.62-4.08-2.75-6.62h.51c.3,0,.53-.24.53-.53s-.24-.53-.53-.53h-.51c.13-2.54,1.14-4.85,2.75-6.62l.36.36c.21.21.55.21.76,0s.21-.55,0-.76l-.36-.36c1.77-1.6,4.08-2.62,6.62-2.75v.51c0,.3.24.53.53.53s.53-.24.53-.53v-.51c2.54.13,4.85,1.14,6.62,2.75l-.36.36c-.21.21-.21.55,0,.76s.55.21.76,0l.36-.36c1.6,1.77,2.62,4.08,2.75,6.62h-.51c-.71.01-.7,1.06,0,1.07,0,0,.51,0,.51,0-.03.52-.08,1.04-.18,1.55-.06.29.13.57.42.63Z"/>
        <path d="M9.74,17.98c.21.21.55.21.76,0l2.71-2.71c2.05.89,3.29-2.14,1.22-2.95,0,0,0-5.98,0-5.98-.01-.7-1.06-.71-1.07,0,0,0,0,5.98,0,5.98-.86.28-1.34,1.37-.91,2.19,0,0-2.71,2.71-2.71,2.71-.21.21-.21.55,0,.76ZM13.89,13.29c.7.01.7,1.06,0,1.07-.7-.01-.7-1.06,0-1.07Z"/>
        <rect x="21.17" y="23.71" width="5.96" height=".73" rx=".31" ry=".31" transform="translate(24.1 -10.02) rotate(45)"/>
        <rect x="21.17" y="23.71" width="5.96" height=".73" rx=".31" ry=".31" transform="translate(-9.95 24.13) rotate(-45)"/>
      </g>
    </g>
  </g>
</svg>