<?xml version="1.0" encoding="UTF-8"?>
<svg id="Capa_2" xmlns="http://www.w3.org/2000/svg" viewBox="0 0 41.66 48.06">
  <defs>
    <style>
      .cls-1 {
        fill: #212121;
      }
    </style>
  </defs>
  <g id="Capa_1-2" data-name="Capa_1">
    <g>
      <g>
        <rect x="6.54" y="19.79" width="3.96" height="3.96" rx="1.98" ry="1.98"/>
        <rect x="13.43" y="19.79" width="3.96" height="3.96" rx="1.98" ry="1.98"/>
        <rect x="20.31" y="19.79" width="3.96" height="3.96" rx="1.98" ry="1.98"/>
        <rect x="27.19" y="19.79" width="3.96" height="3.96" rx="1.98" ry="1.98"/>
        <rect x="6.54" y="26.32" width="3.96" height="3.96" rx="1.98" ry="1.98"/>
        <rect x="13.43" y="26.32" width="3.96" height="3.96" rx="1.98" ry="1.98"/>
        <rect x="20.31" y="26.32" width="3.96" height="3.96" rx="1.98" ry="1.98"/>
        <rect x="27.19" y="26.32" width="3.96" height="3.96" rx="1.98" ry="1.98"/>
        <rect x="6.54" y="32.85" width="3.96" height="3.96" rx="1.98" ry="1.98"/>
        <rect x="13.43" y="32.85" width="3.96" height="3.96" rx="1.98" ry="1.98"/>
        <rect x="20.31" y="32.85" width="3.96" height="3.96" rx="1.98" ry="1.98"/>
      </g>
      <rect x="27.01" y="0" width="2.69" height="9.73" rx="1.35" ry="1.35"/>
      <rect x="7.9" y="0" width="2.69" height="9.73" rx="1.35" ry="1.35"/>
      <rect x="11.94" y="3.62" width="13.72" height="2.49"/>
      <path d="M23.88,39.97c0-.25,0-.49.03-.73H5.91c-1.89,0-3.42-1.53-3.42-3.42v-18.46h32.71v13.06c.88.15,1.71.42,2.49.78V9.53c0-3.26-2.65-5.91-5.91-5.91h-.74v2.49h.74c1.89,0,3.42,1.53,3.42,3.42v5.34H2.49v-5.34c0-1.89,1.53-3.42,3.42-3.42h.64v-2.49h-.64C2.65,3.62,0,6.27,0,9.53v26.29c0,3.26,2.65,5.91,5.91,5.91h18.13c-.11-.57-.16-1.16-.16-1.76Z"/>
      <path class="cls-1" d="M33.57,33.91c3.34,0,6.07,2.72,6.07,6.07s-2.72,6.07-6.07,6.07-6.07-2.72-6.07-6.07,2.72-6.07,6.07-6.07M33.57,31.89c-4.47,0-8.09,3.62-8.09,8.09s3.62,8.09,8.09,8.09,8.09-3.62,8.09-8.09-3.62-8.09-8.09-8.09h0Z"/>
      <path d="M36.06,43.47c-.26,0-.52-.1-.71-.3l-2.22-2.22c-.36-.36-.57-.86-.57-1.37v-2.56c0-.55.43-1.02.97-1.03.58-.02,1.05.44,1.05,1.01v2.55l2.19,2.19c.39.39.39,1.03,0,1.43-.2.2-.46.3-.71.3Z"/>
    </g>
  </g>
</svg>