<?xml version="1.0" encoding="UTF-8"?>
<svg id="Capa_2" xmlns="http://www.w3.org/2000/svg" viewBox="0 0 30.47 26.96">
  <defs>
    <style>
      .cls-1 {
        fill: #231f20;
      }

      .cls-2 {
        fill: #fff;
      }
    </style>
  </defs>
  <g id="Capa_1-2" data-name="Capa_1">
    <g>
      <polyline class="cls-2" points="16.51 1.71 16.06 1.26 14.71 .81 1.21 24.22 .31 25.12 1.21 26.02 2.11 26.02 29.12 26.02 29.12 26.02 30.02 25.12"/>
      <g>
        <path class="cls-1" d="M30.19,23.77L17.08,1.06c-.59-1.02-1.89-1.36-2.9-.78-.32.19-.59.45-.78.78L.29,23.77c-.59,1.02-.24,2.32.78,2.9.32.19.69.28,1.06.28h26.22c1.17,0,2.13-.95,2.13-2.12,0-.37-.1-.74-.28-1.06ZM29.27,25.37c-.19.33-.54.53-.92.53H2.13c-.59,0-1.06-.48-1.06-1.06,0-.19.05-.37.14-.53L14.32,1.59c.29-.51.94-.68,1.45-.39.16.09.3.23.39.39l13.11,22.71c.19.33.19.73,0,1.06Z"/>
        <path class="cls-1" d="M15.24,6.62c-1.2,0-2.17.97-2.17,2.17v9.72c0,1.2.97,2.17,2.17,2.17,1.2,0,2.17-.97,2.17-2.17h0v-9.73c0-1.2-.97-2.17-2.17-2.17ZM16.35,18.51c0,.61-.5,1.11-1.11,1.11s-1.11-.5-1.11-1.11h0v-9.72c0-.61.5-1.11,1.11-1.11s1.11.5,1.11,1.11v9.72Z"/>
        <path class="cls-1" d="M15.24,21.45c-.96,0-1.74.78-1.74,1.74s.78,1.74,1.74,1.74,1.74-.78,1.74-1.74h0c0-.96-.78-1.73-1.74-1.74ZM15.24,23.86c-.37,0-.67-.3-.67-.67s.3-.67.67-.67.67.3.67.67c0,.37-.3.67-.67.67Z"/>
      </g>
    </g>
  </g>
</svg>