<?xml version="1.0" encoding="UTF-8"?>
<svg id="Capa_2" xmlns="http://www.w3.org/2000/svg" viewBox="0 0 27.91 27.91">
  <defs>
    <style>
      .cls-1 {
        fill: #fff;
        stroke: #141414;
        stroke-linecap: round;
        stroke-linejoin: round;
        stroke-width: 1.5px;
      }
    </style>
  </defs>
  <g id="Capa_1-2" data-name="Capa_1">
    <g>
      <path class="cls-1" d="M20.69,7.22c.99.99,2.59.99,3.57,0l2.9,2.9L10.11,27.16l-2.9-2.9s.04-.04.07-.06c.99-.99.99-2.59,0-3.57-.99-.99-2.59-.99-3.57,0-.02.02-.04.04-.06.07l-2.9-2.9L17.79.75l2.9,2.9c-.99.99-.99,2.59,0,3.57Z"/>
      <g>
        <path d="M17.32,7.45l-.52-.52c-.16-.16-.41-.16-.57,0-.16.16-.16.41,0,.57l.52.52c.08.08.18.12.29.12s.21-.04.29-.12c.16-.16.16-.41,0-.57Z"/>
        <path d="M13.63,4.91h0s.52.52.52.52c.08.08.18.12.29.12s.21-.04.29-.12c.16-.16.16-.41,0-.57l-.52-.52h0l-.57.57Z"/>
        <path d="M18.62,8.75l-.52-.52c-.16-.16-.41-.16-.57,0-.16.16-.16.41,0,.57l.52.52c.08.08.18.12.29.12s.21-.04.29-.12c.16-.16.16-.41,0-.57Z"/>
        <path d="M16.02,6.16l-.52-.52c-.16-.16-.41-.16-.57,0-.16.16-.16.41,0,.57l.52.52c.08.08.18.12.29.12s.21-.04.29-.12c.16-.16.16-.41,0-.57Z"/>
        <path d="M21.21,11.35l-.52-.52c-.16-.16-.41-.16-.57,0-.16.16-.16.41,0,.57l.52.52c.08.08.18.12.29.12s.21-.04.29-.12c.16-.16.16-.41,0-.57Z"/>
        <path d="M23,14.27l-.28-.28c-.16-.16-.16-.41,0-.57.16-.16.41-.16.57,0l.28.28-.57.57Z"/>
        <path d="M22.51,12.65l-.52-.52c-.16-.16-.41-.16-.57,0-.16.16-.16.41,0,.57l.52.52c.08.08.18.12.29.12s.21-.04.29-.12c.16-.16.16-.41,0-.57Z"/>
        <path d="M19.92,10.05l-.52-.52c-.16-.16-.41-.16-.57,0-.16.16-.16.41,0,.57l.52.52c.08.08.18.12.29.12s.21-.04.29-.12c.16-.16.16-.41,0-.57Z"/>
      </g>
    </g>
  </g>
</svg>